# xmcd
#
# Track frame offsets: 
#        150
#        24367
#        49146
#        81239
#
# Disc length: 1344 seconds
#
# Revision: 4
# Processed by: cddbd v1.5.2PL0 Copyright (c) Steve Scherf et al.
# Submitted via: ExactAudioCopy v0.95b4
#
DISCID=27053e04
DTITLE=Galneryus - Alsatia - Cause Disarray
DYEAR=2008
DGENRE=Neoclassical/Power Metal
TTITLE0=Alsatia
TTITLE1=Wings
TTITLE2=The Awakening
TTITLE3=Cause Disarray
EXTD=YEAR: 2008
EXTT0=
EXTT1=
EXTT2=
EXTT3=
PLAYORDER=
